<svg width="235" height="34" viewBox="0 0 235 34" fill="none" xmlns="http://www.w3.org/2000/svg">
<g style="mix-blend-mode:color-dodge">
<path d="M10.3092 26.396C8.38916 26.396 6.80516 26.156 5.55716 25.676C4.33316 25.172 3.36116 24.404 2.64116 23.372C1.92116 22.34 1.41716 21.032 1.12916 19.448C0.865158 17.84 0.733158 15.932 0.733158 13.724C0.733158 11.492 0.865158 9.584 1.12916 8C1.41716 6.392 1.92116 5.072 2.64116 4.04C3.36116 3.008 4.34516 2.24 5.59316 1.736C6.86516 1.232 8.48516 0.979998 10.4532 0.979998C11.2452 0.979998 12.0732 1.028 12.9372 1.124C13.8012 1.22 14.6292 1.34 15.4212 1.484C16.2372 1.604 16.9332 1.736 17.5092 1.88L17.3652 5.84C16.8852 5.744 16.2852 5.66 15.5652 5.588C14.8452 5.492 14.1132 5.42 13.3692 5.372C12.6252 5.324 11.9292 5.3 11.2812 5.3C10.1292 5.3 9.19316 5.444 8.47316 5.732C7.75316 6.02 7.18916 6.5 6.78116 7.172C6.39716 7.844 6.13316 8.72 5.98916 9.8C5.84516 10.856 5.77316 12.164 5.77316 13.724C5.77316 15.26 5.84516 16.568 5.98916 17.648C6.13316 18.704 6.39716 19.568 6.78116 20.24C7.16516 20.888 7.71716 21.368 8.43716 21.68C9.18116 21.968 10.1412 22.112 11.3172 22.112C12.2772 22.112 13.3332 22.064 14.4852 21.968C15.6612 21.848 16.6332 21.74 17.4012 21.644L17.5092 25.568C16.9332 25.688 16.2492 25.82 15.4572 25.964C14.6652 26.084 13.8252 26.18 12.9372 26.252C12.0492 26.348 11.1732 26.396 10.3092 26.396ZM25.8266 26V7.928H30.6146V10.052C31.0226 9.74 31.5266 9.416 32.1266 9.08C32.7266 8.72 33.3746 8.396 34.0706 8.108C34.7906 7.796 35.4746 7.592 36.1226 7.496V12.14C35.4986 12.236 34.8386 12.404 34.1426 12.644C33.4466 12.86 32.7866 13.1 32.1626 13.364C31.5626 13.628 31.0466 13.868 30.6146 14.084V26H25.8266ZM48.2714 33.596L50.5754 26H46.7234L42.4394 7.928H47.4434L50.6474 21.932H51.5834L54.7874 7.928H59.6114L53.3834 33.596H48.2714ZM67.3447 33.596V7.928H72.0967L72.1327 9.08C72.4687 8.864 72.8887 8.636 73.3927 8.396C73.9207 8.156 74.4847 7.952 75.0847 7.784C75.6847 7.616 76.2727 7.532 76.8487 7.532C79.2727 7.532 81.0127 8.312 82.0687 9.872C83.1247 11.408 83.6527 13.748 83.6527 16.892C83.6527 19.148 83.3887 20.972 82.8607 22.364C82.3327 23.756 81.4807 24.776 80.3047 25.424C79.1527 26.072 77.6287 26.396 75.7327 26.396C75.1327 26.396 74.4847 26.348 73.7887 26.252C73.0927 26.156 72.5407 26.06 72.1327 25.964V33.596H67.3447ZM74.9767 22.4C75.9367 22.4 76.6927 22.196 77.2447 21.788C77.7967 21.38 78.1807 20.768 78.3967 19.952C78.6367 19.112 78.7567 18.056 78.7567 16.784C78.7567 14.816 78.4807 13.46 77.9287 12.716C77.4007 11.948 76.6327 11.564 75.6247 11.564C75.2407 11.564 74.8327 11.612 74.4007 11.708C73.9687 11.804 73.5487 11.924 73.1407 12.068C72.7327 12.212 72.3967 12.356 72.1327 12.5V22.148C72.4207 22.172 72.8287 22.22 73.3567 22.292C73.9087 22.364 74.4487 22.4 74.9767 22.4ZM98.4827 26.432C97.1627 26.432 96.0947 26.24 95.2787 25.856C94.4627 25.472 93.8747 24.812 93.5147 23.876C93.1787 22.916 93.0107 21.584 93.0107 19.88V11.924H90.8867V7.928H93.0107V3.14H97.7987V7.928H102.407V11.924H97.7987V18.62C97.7987 19.556 97.8347 20.288 97.9067 20.816C98.0027 21.344 98.1947 21.716 98.4827 21.932C98.7707 22.148 99.2147 22.256 99.8147 22.256C99.9827 22.256 100.235 22.244 100.571 22.22C100.907 22.196 101.243 22.172 101.579 22.148C101.915 22.124 102.191 22.1 102.407 22.076L102.551 25.928C101.975 26.024 101.279 26.132 100.463 26.252C99.6707 26.372 99.0107 26.432 98.4827 26.432ZM110.592 26V1.412H126.936V5.552H115.56V11.528H124.776V15.596H115.56V21.86H126.936V26H110.592ZM141.688 26.432C140.368 26.432 139.3 26.24 138.484 25.856C137.668 25.472 137.08 24.812 136.72 23.876C136.384 22.916 136.216 21.584 136.216 19.88V11.924H134.092V7.928H136.216V3.14H141.004V7.928H145.612V11.924H141.004V18.62C141.004 19.556 141.04 20.288 141.112 20.816C141.208 21.344 141.4 21.716 141.688 21.932C141.976 22.148 142.42 22.256 143.02 22.256C143.188 22.256 143.44 22.244 143.776 22.22C144.112 22.196 144.448 22.172 144.784 22.148C145.12 22.124 145.396 22.1 145.612 22.076L145.756 25.928C145.18 26.024 144.484 26.132 143.668 26.252C142.876 26.372 142.216 26.432 141.688 26.432ZM153.51 26V0.547999H158.298V8.576C158.898 8.36 159.666 8.132 160.602 7.892C161.538 7.652 162.402 7.532 163.194 7.532C164.874 7.532 166.182 7.832 167.118 8.432C168.054 9.008 168.702 9.956 169.062 11.276C169.446 12.596 169.638 14.348 169.638 16.532V26H164.814V16.892C164.814 15.644 164.742 14.648 164.598 13.904C164.454 13.136 164.178 12.584 163.77 12.248C163.386 11.912 162.786 11.744 161.97 11.744C161.322 11.744 160.65 11.828 159.954 11.996C159.282 12.164 158.73 12.32 158.298 12.464V26H153.51ZM185.936 26.396C183.944 26.396 182.36 26.06 181.184 25.388C180.032 24.716 179.204 23.696 178.7 22.328C178.196 20.96 177.944 19.244 177.944 17.18C177.944 14.948 178.256 13.124 178.88 11.708C179.528 10.292 180.464 9.248 181.688 8.576C182.912 7.88 184.424 7.532 186.224 7.532C188.888 7.532 190.892 8.204 192.236 9.548C193.604 10.892 194.288 13.016 194.288 15.92L194.072 18.584H182.768C182.792 19.928 183.068 20.936 183.596 21.608C184.124 22.28 185.036 22.616 186.332 22.616C187.076 22.616 187.892 22.604 188.78 22.58C189.668 22.532 190.544 22.484 191.408 22.436C192.296 22.388 193.052 22.34 193.676 22.292L193.784 25.64C193.184 25.736 192.428 25.844 191.516 25.964C190.604 26.084 189.656 26.18 188.672 26.252C187.712 26.348 186.8 26.396 185.936 26.396ZM182.768 15.524H189.5C189.5 13.892 189.236 12.752 188.708 12.104C188.204 11.456 187.376 11.132 186.224 11.132C185.096 11.132 184.232 11.468 183.632 12.14C183.056 12.812 182.768 13.94 182.768 15.524ZM202.692 26V7.928H207.48V10.052C207.888 9.74 208.392 9.416 208.992 9.08C209.592 8.72 210.24 8.396 210.936 8.108C211.656 7.796 212.34 7.592 212.988 7.496V12.14C212.364 12.236 211.704 12.404 211.008 12.644C210.312 12.86 209.652 13.1 209.028 13.364C208.428 13.628 207.912 13.868 207.48 14.084V26H202.692ZM227.225 26.396C226.433 26.396 225.581 26.348 224.669 26.252C223.781 26.18 222.941 26.084 222.149 25.964C221.381 25.844 220.721 25.724 220.169 25.604L220.313 22.04C220.937 22.112 221.633 22.196 222.401 22.292C223.193 22.388 223.961 22.472 224.705 22.544C225.473 22.592 226.097 22.616 226.577 22.616C227.297 22.616 227.885 22.556 228.341 22.436C228.821 22.316 229.181 22.124 229.421 21.86C229.661 21.572 229.781 21.164 229.781 20.636C229.781 20.228 229.673 19.916 229.457 19.7C229.265 19.484 228.881 19.304 228.305 19.16C227.753 18.992 226.937 18.824 225.857 18.656C224.513 18.464 223.397 18.188 222.509 17.828C221.645 17.468 221.009 16.94 220.601 16.244C220.193 15.524 219.989 14.552 219.989 13.328C219.989 11.84 220.313 10.676 220.961 9.836C221.609 8.996 222.473 8.408 223.553 8.072C224.633 7.712 225.809 7.532 227.081 7.532C227.921 7.532 228.785 7.58 229.673 7.676C230.561 7.748 231.401 7.844 232.193 7.964C232.985 8.084 233.645 8.204 234.173 8.324L234.029 11.96C233.429 11.864 232.733 11.78 231.941 11.708C231.149 11.612 230.357 11.54 229.565 11.492C228.797 11.444 228.149 11.42 227.621 11.42C227.069 11.42 226.577 11.48 226.145 11.6C225.713 11.696 225.377 11.864 225.137 12.104C224.921 12.344 224.813 12.704 224.813 13.184C224.813 13.52 224.909 13.796 225.101 14.012C225.293 14.228 225.653 14.42 226.181 14.588C226.733 14.732 227.525 14.876 228.557 15.02C230.045 15.236 231.233 15.536 232.121 15.92C233.009 16.304 233.645 16.856 234.029 17.576C234.437 18.296 234.641 19.268 234.641 20.492C234.641 22.676 233.993 24.212 232.697 25.1C231.425 25.964 229.601 26.396 227.225 26.396Z" fill="white"/>
</g>
</svg>
